<svg width="59" height="72" viewBox="0 0 59 72" fill="none" xmlns="http://www.w3.org/2000/svg">
<path d="M48.5915 38.2955C48.6617 32.7608 51.5896 27.5238 56.2344 24.6248C53.3042 20.3764 48.3962 17.6828 43.29 17.5206C37.8437 16.9403 32.5638 20.829 29.7885 20.829C26.9595 20.829 22.6865 17.5782 18.0851 17.6743C12.0875 17.871 6.49619 21.3327 3.57821 26.6559C-2.69429 37.6806 1.98443 53.8833 7.99297 62.7948C10.9992 67.1586 14.5125 72.033 19.1097 71.8601C23.6084 71.6707 25.2885 68.948 30.7187 68.948C36.0986 68.948 37.6749 71.8601 42.3654 71.7502C47.1926 71.6707 50.234 67.3671 53.1347 62.962C55.2946 59.8527 56.9567 56.4162 58.0594 52.7799C52.3865 50.3441 48.5981 44.5485 48.5915 38.2955Z" fill="white"/>
<path d="M39.7319 11.6599C42.3639 8.45233 43.6606 4.3295 43.3466 0.166992C39.3255 0.595746 35.6111 2.54676 32.9435 5.63129C30.335 8.64503 28.9775 12.6953 29.2341 16.6987C33.2567 16.7408 37.2112 14.8427 39.7319 11.6599Z" fill="white"/>
</svg>
