<svg width="75" height="101" viewBox="0 0 75 101" fill="none" xmlns="http://www.w3.org/2000/svg">
<path d="M9.42969 53.9989H17.835C21.7904 53.9989 25.1691 54.9054 27.9708 56.7183C30.855 58.6136 32.7915 61.2918 33.7804 64.7528V7.39893H43.669V64.7528C44.6578 61.2918 46.5531 58.6136 49.3549 56.7183C52.2391 54.9054 55.6589 53.9989 59.6144 53.9989H68.0197V64.6293H60.7268C55.6177 64.6293 51.4563 65.9889 48.2424 68.7082C45.0287 71.4276 43.4217 75.2182 43.4217 80.0803V81.5631H34.0276V80.0803C34.0276 75.2182 32.4207 71.4276 29.2069 68.7082C25.993 65.9889 21.8316 64.6293 16.7225 64.6293H9.42969V53.9989Z" fill="black"/>
</svg>
