<svg width="36" height="29" viewBox="0 0 36 29" fill="none" xmlns="http://www.w3.org/2000/svg">
<path d="M22.7313 28.9508V24.9163C22.7313 23.0177 23.1664 21.3959 24.0366 20.0511C24.9464 18.6667 26.2319 17.7372 27.8931 17.2625H0.363281V12.516H27.8931C26.2319 12.0413 24.9464 11.1316 24.0366 9.78672C23.1664 8.40229 22.7313 6.7608 22.7313 4.86218V0.827637H27.8338V4.32822C27.8338 6.78057 28.4865 8.77808 29.7918 10.3207C31.0971 11.8633 32.9166 12.6346 35.2503 12.6346H35.9622V17.1438H35.2503C32.9166 17.1438 31.0971 17.9151 29.7918 19.4578C28.4865 21.0004 27.8338 22.9979 27.8338 25.4503V28.9508H22.7313Z" fill="white"/>
</svg>
