<svg width="36" height="36" viewBox="0 0 36 36" fill="none" xmlns="http://www.w3.org/2000/svg">
<path d="M26.1577 32.9057H9.84375C8.84919 32.9057 7.89536 32.5106 7.1921 31.8074C6.48884 31.1041 6.09375 30.1503 6.09375 29.1557V27.9152C6.09375 21.9617 11.4353 17.1152 18.0008 17.1152C24.5662 17.1152 29.9077 21.9587 29.9077 27.9152V29.1557C29.9077 30.1503 29.5127 31.1041 28.8094 31.8074C28.1061 32.5106 27.1523 32.9057 26.1577 32.9057ZM18.0008 18.6182C12.2618 18.6182 7.59375 22.7882 7.59375 27.9182V29.1587C7.59375 29.7555 7.8308 30.3278 8.25276 30.7497C8.67472 31.1717 9.24701 31.4087 9.84375 31.4087H26.1577C26.7545 31.4087 27.3268 31.1717 27.7487 30.7497C28.1707 30.3278 28.4077 29.7555 28.4077 29.1587V27.9152C28.4077 22.7882 23.7397 18.6182 18.0008 18.6182ZM18.0008 14.8667C16.8365 14.867 15.6984 14.5221 14.7303 13.8755C13.7621 13.2289 13.0075 12.3097 12.5617 11.2342C12.116 10.1587 11.9992 8.97522 12.2262 7.83335C12.4531 6.69148 13.0136 5.64255 13.8367 4.81923C14.6598 3.99591 15.7086 3.43517 16.8504 3.20794C17.9922 2.9807 19.1758 3.09718 20.2514 3.54263C21.327 3.98808 22.2463 4.74251 22.8932 5.71049C23.54 6.67847 23.8853 7.81652 23.8853 8.98073C23.8841 10.5412 23.2638 12.0374 22.1605 13.1409C21.0572 14.2445 19.5612 14.8651 18.0008 14.8667ZM18.0008 4.59623C17.1332 4.59593 16.285 4.85295 15.5635 5.33478C14.842 5.8166 14.2796 6.50159 13.9474 7.30309C13.6153 8.10458 13.5283 8.98659 13.6975 9.83753C13.8666 10.6885 14.2844 11.4701 14.8979 12.0836C15.5114 12.6971 16.293 13.1148 17.144 13.284C17.9949 13.4532 18.8769 13.3662 19.6784 13.0341C20.4799 12.7019 21.1649 12.1395 21.6467 11.418C22.1285 10.6965 22.3855 9.84833 22.3853 8.98073C22.3841 7.81825 21.9217 6.70373 21.0997 5.88174C20.2777 5.05974 19.1632 4.59742 18.0008 4.59623Z" fill="#A4A3A3"/>
</svg>
