<svg width="36" height="36" viewBox="0 0 36 36" fill="none" xmlns="http://www.w3.org/2000/svg">
<path d="M22.7313 32.4821V28.4475C22.7313 26.5489 23.1664 24.9272 24.0366 23.5823C24.9464 22.1979 26.2319 21.2684 27.8931 20.7937H0.363281V16.0472H27.8931C26.2319 15.5726 24.9464 14.6628 24.0366 13.318C23.1664 11.9335 22.7313 10.2921 22.7313 8.39343V4.35889H27.8338V7.85947C27.8338 10.3118 28.4865 12.3093 29.7918 13.8519C31.0971 15.3946 32.9166 16.1659 35.2503 16.1659H35.9622V20.6751H35.2503C32.9166 20.6751 31.0971 21.4464 29.7918 22.989C28.4865 24.5316 27.8338 26.5291 27.8338 28.9815V32.4821H22.7313Z" fill="black"/>
</svg>
