<svg width="75" height="101" viewBox="0 0 75 101" fill="none" xmlns="http://www.w3.org/2000/svg">
<g clip-path="url(#clip0_1326_57140)">
<g clip-path="url(#clip1_1326_57140)">
<path d="M9.42969 53.5614H17.835C21.7904 53.5614 25.1691 54.4679 27.9708 56.2808C30.855 58.1761 32.7915 60.8543 33.7804 64.3153V6.96143H43.669V64.3153C44.6578 60.8543 46.5531 58.1761 49.3549 56.2808C52.2391 54.4679 55.6589 53.5614 59.6144 53.5614H68.0197V64.1918H60.7268C55.6177 64.1918 51.4563 65.5514 48.2424 68.2707C45.0287 70.9901 43.4217 74.7807 43.4217 79.6428V81.1256H34.0276V79.6428C34.0276 74.7807 32.4207 70.9901 29.2069 68.2707C25.993 65.5514 21.8316 64.1918 16.7225 64.1918H9.42969V53.5614Z" fill="black"/>
</g>
</g>
<defs>
<clipPath id="clip0_1326_57140">
<rect width="75" height="100" fill="white" transform="translate(0 0.53125)"/>
</clipPath>
<clipPath id="clip1_1326_57140">
<rect width="75" height="112" fill="white" transform="translate(0 -11.4688)"/>
</clipPath>
</defs>
</svg>
