<svg width="75" height="100" viewBox="0 0 75 100" fill="none" xmlns="http://www.w3.org/2000/svg">
<g clip-path="url(#clip0_1326_57209)">
<path d="M9.42969 53.0302H17.835C21.7904 53.0302 25.1691 53.9367 27.9708 55.7496C30.855 57.6449 32.7915 60.3231 33.7804 63.7841V6.43018H43.669V63.7841C44.6578 60.3231 46.5531 57.6449 49.3549 55.7496C52.2391 53.9367 55.6589 53.0302 59.6144 53.0302H68.0197V63.6605H60.7268C55.6177 63.6605 51.4563 65.0202 48.2424 67.7395C45.0287 70.4589 43.4217 74.2495 43.4217 79.1115V80.5943H34.0276V79.1115C34.0276 74.2495 32.4207 70.4589 29.2069 67.7395C25.993 65.0202 21.8316 63.6605 16.7225 63.6605H9.42969V53.0302Z" fill="white"/>
</g>
<defs>
<clipPath id="clip0_1326_57209">
<rect width="75" height="112" fill="white" transform="translate(0 -12)"/>
</clipPath>
</defs>
</svg>
