<svg width="513" height="512" viewBox="0 0 513 512" fill="none" xmlns="http://www.w3.org/2000/svg">
<rect width="512" height="512" rx="90" fill="white"/>
<path d="M260.81 427.999C167.591 427.753 92.3672 352.426 93.004 259.972C93.6131 169.711 169.944 95.754 262.222 96.0006C354.251 96.2472 430.028 170.944 430 261.37C429.945 353.741 354.278 428.273 260.81 427.999Z" fill="#279FBD"/>
<path d="M259.64 343.999C213.624 343.801 176.143 306.802 176.001 261.362C175.829 214.873 214.709 177.109 261.781 178.016C307.712 178.894 344.536 216.544 343.994 262.07C343.452 307.567 305.742 344.169 259.64 343.999Z" fill="#FEFEFE"/>
<mask id="mask0_4571_7375" style="mask-type:alpha" maskUnits="userSpaceOnUse" x="0" y="1" width="513" height="511">
<rect y="1" width="513" height="511" rx="90" fill="#D9D9D9"/>
</mask>
<g mask="url(#mask0_4571_7375)">
<path d="M68.4306 126.997C-2.83338 126.533 -60.5116 67.9026 -59.9966 -3.56352C-59.4816 -74.2961 -0.258518 -131.63 71.594 -130.995C143.03 -130.359 200.512 -71.9245 199.997 -0.433975C199.506 70.2742 140.479 127.462 68.4306 126.997Z" fill="#F6B900"/>
<path d="M133 -2.15638C133.077 31.9873 104.925 60.5822 70.7874 60.9951C35.6484 61.4339 6.44297 32.0647 7.00807 -3.11126C7.57317 -37.2549 36.2906 -65.2563 70.4534 -64.9982C104.616 -64.7402 132.923 -36.3 133 -2.15638Z" fill="#FEFEFE"/>
</g>
</svg>
